<svg width="124" height="123" viewBox="0 0 124 123" fill="none" xmlns="http://www.w3.org/2000/svg">
<path d="M88.9631 50.8322H71.5692V35.0842C71.5692 33.5962 70.3268 32.2322 68.7116 32.2322H34.1722C32.6813 32.2322 31.3146 33.4722 31.3146 35.0842V69.6802C31.3146 71.1682 32.5571 72.5322 34.1722 72.5322H51.4419V88.2802C51.4419 89.7682 52.6843 91.1322 54.2995 91.1322H88.9631C90.4541 91.1322 91.8207 89.8922 91.8207 88.2802V53.6842C91.6965 52.0722 90.4541 50.8322 88.9631 50.8322ZM36.9056 66.9522V37.9362H65.9783V50.8322H54.2995C52.8086 50.8322 51.4419 52.0722 51.4419 53.6842V66.9522H36.9056ZM86.1056 85.4282H57.0328V72.5322H68.7116C70.2025 72.5322 71.5692 71.2922 71.5692 69.6802V56.4122H86.1056V85.4282Z" fill="#0000FF"/>
<path d="M113.439 24.916H120.521C122.012 24.916 123.13 23.676 123.13 22.312V2.71997C123.13 1.23197 121.887 0.115967 120.521 0.115967H101.015C99.5238 0.115967 98.4056 1.35597 98.4056 2.71997V9.78797H25.1025V3.33997C25.1025 1.85197 23.8601 0.735967 22.4934 0.735967H2.98739C1.49648 0.735967 0.378296 1.97597 0.378296 3.33997V22.932C0.378296 24.42 1.62072 25.536 2.98739 25.536H10.0692V97.332H2.98739C1.49648 97.332 0.378296 98.572 0.378296 99.936V119.528C0.378296 121.016 1.62072 122.132 2.98739 122.132H22.4934C23.9844 122.132 25.1025 120.892 25.1025 119.528V111.84H98.4056V118.908C98.4056 120.396 99.648 121.512 101.015 121.512H120.521C122.012 121.512 123.13 120.272 123.13 118.908V99.316C123.13 97.828 121.887 96.712 120.521 96.712H113.439V24.916ZM5.59648 20.204V5.94397H19.7601V20.204H5.59648ZM19.7601 116.8H5.59648V102.54H19.7601V116.8ZM98.4056 99.316V106.384H25.1025V99.812C25.1025 98.324 23.8601 97.208 22.4934 97.208H15.4116V25.536H22.4934C23.9844 25.536 25.1025 24.296 25.1025 22.932V15.12H98.4056V22.188C98.4056 23.676 99.648 24.792 101.015 24.792H108.096V96.464H101.015C99.5238 96.712 98.4056 97.828 98.4056 99.316ZM117.912 101.92V116.18H103.748V101.92H117.912ZM103.748 19.584V5.32397H117.912V19.584H103.748Z" fill="black"/>
</svg>
