<svg width="88" height="155" viewBox="0 0 88 155" fill="none" xmlns="http://www.w3.org/2000/svg">
<path d="M38.682 34.3022H12.77C11.664 34.3022 10.716 35.2478 10.716 36.351V52.4262C10.716 53.5294 11.664 54.475 12.77 54.475H38.682C39.788 54.475 40.736 53.5294 40.736 52.4262V36.351C40.736 35.2478 39.788 34.3022 38.682 34.3022ZM14.824 50.3774V38.2422H36.786V50.3774H14.824Z" fill="#0000FF"/>
<path d="M72.968 34.3022H47.056C45.95 34.3022 45.002 35.2478 45.002 36.351V52.4262C45.002 53.5294 45.95 54.475 47.056 54.475H72.968C74.074 54.475 75.022 53.5294 75.022 52.4262V36.351C75.022 35.2478 74.074 34.3022 72.968 34.3022ZM49.11 50.3774V38.2422H71.072V50.3774H49.11Z" fill="#0000FF"/>
<path d="M38.682 59.2031H12.77C11.664 59.2031 10.716 60.1487 10.716 61.2519V77.3271C10.716 78.4303 11.664 79.3759 12.77 79.3759H38.682C39.788 79.3759 40.736 78.4303 40.736 77.3271V61.0943C40.736 59.9911 39.788 59.2031 38.682 59.2031ZM14.824 75.2783V63.1431H36.786V75.2783H14.824Z" fill="#0000FF"/>
<path d="M38.682 84.7344H12.77C11.664 84.7344 10.716 85.68 10.716 86.7832V102.858C10.716 103.962 11.664 104.907 12.77 104.907H38.682C39.788 104.907 40.736 103.962 40.736 102.858V86.7832C40.736 85.68 39.788 84.7344 38.682 84.7344ZM14.824 100.81V88.6744H36.786V100.81H14.824Z" fill="#0000FF"/>
<path d="M43.422 146.198C46.3016 146.198 48.636 143.87 48.636 140.998C48.636 138.125 46.3016 135.797 43.422 135.797C40.5424 135.797 38.208 138.125 38.208 140.998C38.208 143.87 40.5424 146.198 43.422 146.198Z" fill="#0000FF"/>
<path d="M43.264 146.198C46.1436 146.198 48.478 143.87 48.478 140.998C48.478 138.125 46.1436 135.797 43.264 135.797C40.3844 135.797 38.05 138.125 38.05 140.998C38.05 143.87 40.3844 146.198 43.264 146.198Z" fill="#0000FF"/>
<path d="M33.942 11.6079C32.836 11.6079 31.888 12.5535 31.888 13.6567C31.888 14.7599 32.836 15.7055 33.942 15.7055H52.586C53.692 15.7055 54.64 14.7599 54.64 13.6567C54.64 12.5535 53.692 11.6079 52.586 11.6079H33.942Z" fill="#0000FF"/>
<path d="M72.968 59.2031H47.056C45.95 59.2031 45.002 60.1487 45.002 61.2519V77.3271C45.002 78.4303 45.95 79.3759 47.056 79.3759H72.968C74.074 79.3759 75.022 78.4303 75.022 77.3271V61.0943C75.022 59.9911 74.074 59.2031 72.968 59.2031ZM49.11 75.2783V63.1431H71.072V75.2783H49.11Z" fill="#0000FF"/>
<path d="M81.974 122.401V127.759H4.87001V25.7919H81.974V83.6311H86.872V13.4991C86.872 6.40713 81.026 0.575928 73.916 0.575928H13.086C5.97601 0.575928 0.130005 6.40713 0.130005 13.4991V141.628C0.130005 148.72 5.97601 154.551 13.086 154.551H73.916C81.026 154.551 86.872 148.72 86.872 141.628V122.401H81.974ZM4.87001 13.4991C4.87001 9.08633 8.50401 5.46153 12.928 5.46153H73.758C78.182 5.46153 81.816 9.08633 81.816 13.4991V20.7487H4.87001V13.4991ZM81.974 141.628C81.974 146.041 78.34 149.666 73.916 149.666H13.086C8.66201 149.666 5.02801 146.041 5.02801 141.628V132.645H82.132V141.628H81.974Z" fill="black"/>
<path d="M85.924 100.337H83.08C82.606 98.4456 81.974 96.8696 80.868 95.4512L83.396 92.9296C83.554 92.772 83.712 92.4568 83.712 92.2992C83.712 91.984 83.554 91.8264 83.396 91.6688L80.078 88.3592C79.762 88.044 79.13 88.044 78.656 88.3592L76.128 90.8808C74.706 89.9352 73.126 89.3048 71.704 88.832V85.68C71.704 85.2072 71.23 84.7344 70.756 84.7344H66.174C65.7 84.7344 65.226 85.2072 65.226 85.68V88.832C63.488 89.1472 61.908 89.9352 60.644 90.7232L57.958 88.044C57.642 87.7288 57.01 87.7288 56.536 88.044L53.218 91.3536C53.06 91.5112 52.902 91.8264 52.902 91.984C52.902 92.1416 53.06 92.4568 53.218 92.6144L55.904 95.2936C54.956 96.8696 54.166 98.6032 53.692 100.337H50.69C50.216 100.337 49.742 100.81 49.742 101.282V105.853C49.742 106.326 50.216 106.798 50.69 106.798H53.692C54.008 108.532 54.798 110.108 55.588 111.369L53.218 113.733C53.218 113.733 53.06 114.048 53.06 114.206C53.06 114.363 53.218 114.678 53.376 114.836L56.694 118.146C56.852 118.303 57.168 118.461 57.326 118.461C57.642 118.461 57.8 118.303 57.958 118.146L60.328 115.782C61.908 116.885 63.646 117.515 65.384 117.988V120.667C65.384 121.14 65.858 121.613 66.332 121.613H70.914C71.388 121.613 71.862 121.14 71.862 120.667V117.83C73.6 117.2 75.18 116.57 76.76 115.624L78.814 117.673C78.972 117.83 79.288 117.988 79.446 117.988C79.604 117.988 79.92 117.83 80.078 117.673L83.396 114.363C83.554 114.206 83.712 113.89 83.712 113.733C83.712 113.418 83.554 113.26 83.396 113.102L81.342 111.054C82.29 109.635 82.922 108.059 83.238 106.483H86.24C86.714 106.483 87.188 106.01 87.188 105.538V100.967C86.872 100.81 86.556 100.337 85.924 100.337ZM68.386 112.787C63.33 112.787 59.064 108.69 59.064 103.489C59.064 98.4456 63.172 94.1904 68.386 94.1904C73.442 94.1904 77.708 98.288 77.708 103.489C77.708 108.847 73.442 112.787 68.386 112.787Z" fill="#0000FF"/>
</svg>
