<svg width="160" height="115" viewBox="0 0 160 115" fill="none" xmlns="http://www.w3.org/2000/svg">
<path d="M72.745 32.1257H34.795C33.64 32.1257 32.65 33.1193 32.65 34.2785V60.1121C32.65 61.2713 33.64 62.2649 34.795 62.2649H72.745C73.9 62.2649 74.89 61.2713 74.89 60.1121V34.4441C74.89 33.1193 73.9 32.1257 72.745 32.1257ZM36.94 38.4185L49.975 47.1953L36.94 55.9721V38.4185ZM41.725 36.5969H65.65L53.605 44.7113L41.725 36.5969ZM53.77 49.6793L65.815 57.7937H41.725L53.77 49.6793ZM57.4 47.1953L70.435 38.4185V56.1377L57.4 47.1953Z" fill="#0000FF"/>
<path d="M125.875 31.7944H87.925C86.77 31.7944 85.78 32.788 85.78 33.9472V59.6152C85.78 60.7744 86.77 61.768 87.925 61.768H125.875C127.03 61.768 128.02 60.7744 128.02 59.6152V33.9472C128.02 32.788 127.03 31.7944 125.875 31.7944ZM90.07 37.9216L103.105 46.6984L90.07 55.4752V37.9216ZM94.855 36.2656H118.78L106.9 44.38L94.855 36.2656ZM106.9 49.348L118.945 57.4624H94.855L106.9 49.348ZM110.53 46.864L123.565 38.0872V55.8064L110.53 46.864Z" fill="#0000FF"/>
<path d="M72.91 70.7104H34.96C33.805 70.7104 32.815 71.704 32.815 72.8632V98.5312C32.815 99.6904 33.805 100.684 34.96 100.684H72.91C74.065 100.684 75.055 99.6904 75.055 98.5312V72.8632C75.22 71.704 74.23 70.7104 72.91 70.7104ZM37.27 76.8376L50.305 85.6144L37.27 94.3912V76.8376ZM41.89 75.016H65.815L53.935 83.296L41.89 75.016ZM53.935 88.264L65.98 96.3784H41.89L53.935 88.264ZM57.73 85.78L70.765 77.0032V94.7224L57.73 85.78Z" fill="#0000FF"/>
<path d="M126.04 70.2136H88.09C86.935 70.2136 85.945 71.2072 85.945 72.3664V98.2C85.945 99.3592 86.935 100.353 88.09 100.353H126.04C127.195 100.353 128.185 99.3592 128.185 98.2V72.532C128.35 71.2072 127.36 70.2136 126.04 70.2136ZM90.235 76.5064L103.27 85.2832L90.235 94.06V76.5064ZM95.185 74.6848H119.11L107.065 82.7992L95.185 74.6848ZM107.065 87.9328L119.11 96.0472H95.185L107.065 87.9328ZM110.86 85.2832L123.895 76.5064V94.2256L110.86 85.2832Z" fill="#0000FF"/>
<path d="M16.975 19.0434C19.0709 19.0434 20.77 17.3381 20.77 15.2346C20.77 13.131 19.0709 11.4258 16.975 11.4258C14.8791 11.4258 13.18 13.131 13.18 15.2346C13.18 17.3381 14.8791 19.0434 16.975 19.0434Z" fill="#0000FF"/>
<path d="M29.68 19.0434C31.7759 19.0434 33.475 17.3381 33.475 15.2346C33.475 13.131 31.7759 11.4258 29.68 11.4258C27.5841 11.4258 25.885 13.131 25.885 15.2346C25.885 17.3381 27.5841 19.0434 29.68 19.0434Z" fill="#0000FF"/>
<path d="M42.22 19.0434C44.3159 19.0434 46.015 17.3381 46.015 15.2346C46.015 13.131 44.3159 11.4258 42.22 11.4258C40.1241 11.4258 38.425 13.131 38.425 15.2346C38.425 17.3381 40.1241 19.0434 42.22 19.0434Z" fill="#0000FF"/>
<path d="M145.51 0.496094H15.16C7.07501 0.496094 0.640015 7.12009 0.640015 15.0689V100.518C0.640015 108.633 7.24001 115.091 15.16 115.091H145.675C153.76 115.091 160.195 108.467 160.195 100.518V15.0689C160.195 7.12009 153.595 0.496094 145.51 0.496094ZM154.75 100.518C154.75 105.652 150.625 109.792 145.51 109.792H14.995C9.88002 109.792 5.75502 105.652 5.75502 100.518V15.0689C5.75502 9.93529 9.88002 5.7953 14.995 5.7953H145.51C150.625 5.7953 154.75 9.93529 154.75 15.0689V100.518Z" fill="black"/>
</svg>
